<svg width="23" height="23" viewBox="0 0 23 23" fill="none" xmlns="http://www.w3.org/2000/svg">
<g id="bi:person">
<path id="Vector" d="M10.7581 10.7581C12.1847 10.7581 13.5529 10.1913 14.5616 9.18258C15.5704 8.17382 16.1371 6.80564 16.1371 5.37903C16.1371 3.95242 15.5704 2.58425 14.5616 1.57548C13.5529 0.566718 12.1847 0 10.7581 0C9.33146 0 7.96328 0.566718 6.95451 1.57548C5.94575 2.58425 5.37903 3.95242 5.37903 5.37903C5.37903 6.80564 5.94575 8.17382 6.95451 9.18258C7.96328 10.1913 9.33146 10.7581 10.7581 10.7581ZM14.3441 5.37903C14.3441 6.3301 13.9663 7.24222 13.2938 7.91473C12.6213 8.58724 11.7091 8.96505 10.7581 8.96505C9.80699 8.96505 8.89487 8.58724 8.22236 7.91473C7.54985 7.24222 7.17204 6.3301 7.17204 5.37903C7.17204 4.42796 7.54985 3.51584 8.22236 2.84333C8.89487 2.17082 9.80699 1.79301 10.7581 1.79301C11.7091 1.79301 12.6213 2.17082 13.2938 2.84333C13.9663 3.51584 14.3441 4.42796 14.3441 5.37903ZM21.5161 19.7231C21.5161 21.5161 19.7231 21.5161 19.7231 21.5161H1.79301C1.79301 21.5161 0 21.5161 0 19.7231C0 17.9301 1.79301 12.5511 10.7581 12.5511C19.7231 12.5511 21.5161 17.9301 21.5161 19.7231ZM19.7231 19.7159C19.7213 19.2749 19.447 17.948 18.2313 16.7324C17.0623 15.5633 14.8623 14.3441 10.7581 14.3441C6.65207 14.3441 4.45384 15.5633 3.2848 16.7324C2.06913 17.948 1.7966 19.2749 1.79301 19.7159H19.7231Z" fill="#BAB9B9"/>
</g>
</svg>
