<svg width="27" height="27" viewBox="0 0 27 27" fill="none" xmlns="http://www.w3.org/2000/svg">
<g id="uil:schedule" clip-path="url(#clip0_203_40)">
<path id="Vector" d="M13.5 19.5C13.7225 19.5 13.94 19.434 14.125 19.3104C14.31 19.1868 14.4542 19.0111 14.5394 18.8055C14.6245 18.6 14.6468 18.3738 14.6034 18.1555C14.56 17.9373 14.4528 17.7368 14.2955 17.5795C14.1382 17.4222 13.9377 17.315 13.7195 17.2716C13.5012 17.2282 13.275 17.2505 13.0695 17.3356C12.8639 17.4208 12.6882 17.565 12.5646 17.75C12.441 17.935 12.375 18.1525 12.375 18.375C12.375 18.6734 12.4935 18.9595 12.7045 19.1705C12.9155 19.3815 13.2016 19.5 13.5 19.5ZM19.125 19.5C19.3475 19.5 19.565 19.434 19.75 19.3104C19.935 19.1868 20.0792 19.0111 20.1644 18.8055C20.2495 18.6 20.2718 18.3738 20.2284 18.1555C20.185 17.9373 20.0778 17.7368 19.9205 17.5795C19.7632 17.4222 19.5627 17.315 19.3445 17.2716C19.1262 17.2282 18.9 17.2505 18.6945 17.3356C18.4889 17.4208 18.3132 17.565 18.1896 17.75C18.066 17.935 18 18.1525 18 18.375C18 18.6734 18.1185 18.9595 18.3295 19.1705C18.5405 19.3815 18.8266 19.5 19.125 19.5ZM13.5 24C13.7225 24 13.94 23.934 14.125 23.8104C14.31 23.6868 14.4542 23.5111 14.5394 23.3055C14.6245 23.1 14.6468 22.8738 14.6034 22.6555C14.56 22.4373 14.4528 22.2368 14.2955 22.0795C14.1382 21.9222 13.9377 21.815 13.7195 21.7716C13.5012 21.7282 13.275 21.7505 13.0695 21.8356C12.8639 21.9208 12.6882 22.065 12.5646 22.25C12.441 22.435 12.375 22.6525 12.375 22.875C12.375 23.1734 12.4935 23.4595 12.7045 23.6705C12.9155 23.8815 13.2016 24 13.5 24ZM19.125 24C19.3475 24 19.565 23.934 19.75 23.8104C19.935 23.6868 20.0792 23.5111 20.1644 23.3055C20.2495 23.1 20.2718 22.8738 20.2284 22.6555C20.185 22.4373 20.0778 22.2368 19.9205 22.0795C19.7632 21.9222 19.5627 21.815 19.3445 21.7716C19.1262 21.7282 18.9 21.7505 18.6945 21.8356C18.4889 21.9208 18.3132 22.065 18.1896 22.25C18.066 22.435 18 22.6525 18 22.875C18 23.1734 18.1185 23.4595 18.3295 23.6705C18.5405 23.8815 18.8266 24 19.125 24ZM7.875 19.5C8.0975 19.5 8.31501 19.434 8.50002 19.3104C8.68502 19.1868 8.82922 19.0111 8.91436 18.8055C8.99951 18.6 9.02179 18.3738 8.97838 18.1555C8.93498 17.9373 8.82783 17.7368 8.6705 17.5795C8.51316 17.4222 8.31271 17.315 8.09448 17.2716C7.87625 17.2282 7.65005 17.2505 7.44448 17.3356C7.23891 17.4208 7.06321 17.565 6.9396 17.75C6.81598 17.935 6.75 18.1525 6.75 18.375C6.75 18.6734 6.86853 18.9595 7.0795 19.1705C7.29048 19.3815 7.57663 19.5 7.875 19.5ZM21.375 8.25H20.25V7.125C20.25 6.82663 20.1315 6.54048 19.9205 6.3295C19.7095 6.11853 19.4234 6 19.125 6C18.8266 6 18.5405 6.11853 18.3295 6.3295C18.1185 6.54048 18 6.82663 18 7.125V8.25H9V7.125C9 6.82663 8.88147 6.54048 8.6705 6.3295C8.45952 6.11853 8.17337 6 7.875 6C7.57663 6 7.29048 6.11853 7.0795 6.3295C6.86853 6.54048 6.75 6.82663 6.75 7.125V8.25H5.625C4.72989 8.25 3.87145 8.60558 3.23851 9.23851C2.60558 9.87145 2.25 10.7299 2.25 11.625V25.125C2.25 26.0201 2.60558 26.8786 3.23851 27.5115C3.87145 28.1444 4.72989 28.5 5.625 28.5H21.375C22.2701 28.5 23.1286 28.1444 23.7615 27.5115C24.3944 26.8786 24.75 26.0201 24.75 25.125V11.625C24.75 10.7299 24.3944 9.87145 23.7615 9.23851C23.1286 8.60558 22.2701 8.25 21.375 8.25ZM22.5 25.125C22.5 25.4234 22.3815 25.7095 22.1705 25.9205C21.9595 26.1315 21.6734 26.25 21.375 26.25H5.625C5.32663 26.25 5.04048 26.1315 4.8295 25.9205C4.61853 25.7095 4.5 25.4234 4.5 25.125V15H22.5V25.125ZM22.5 12.75H4.5V11.625C4.5 11.3266 4.61853 11.0405 4.8295 10.8295C5.04048 10.6185 5.32663 10.5 5.625 10.5H21.375C21.6734 10.5 21.9595 10.6185 22.1705 10.8295C22.3815 11.0405 22.5 11.3266 22.5 11.625V12.75ZM7.875 24C8.0975 24 8.31501 23.934 8.50002 23.8104C8.68502 23.6868 8.82922 23.5111 8.91436 23.3055C8.99951 23.1 9.02179 22.8738 8.97838 22.6555C8.93498 22.4373 8.82783 22.2368 8.6705 22.0795C8.51316 21.9222 8.31271 21.815 8.09448 21.7716C7.87625 21.7282 7.65005 21.7505 7.44448 21.8356C7.23891 21.9208 7.06321 22.065 6.9396 22.25C6.81598 22.435 6.75 22.6525 6.75 22.875C6.75 23.1734 6.86853 23.4595 7.0795 23.6705C7.29048 23.8815 7.57663 24 7.875 24Z" fill="#BAB9B9"/>
</g>
<defs>
<clipPath id="clip0_203_40">
<rect width="27" height="27" fill="white"/>
</clipPath>
</defs>
</svg>
